<svg width="23" height="19" viewBox="0 0 23 19" fill="none" xmlns="http://www.w3.org/2000/svg">
<path fill-rule="evenodd" clip-rule="evenodd" d="M0.5625 1.29688C0.5625 0.986078 0.685969 0.688 0.905734 0.468234C1.1255 0.248469 1.42358 0.125 1.73438 0.125H21.2656C21.5764 0.125 21.8745 0.248469 22.0942 0.468234C22.3141 0.688 22.4375 0.986078 22.4375 1.29688C22.4375 1.60767 22.3141 1.90575 22.0942 2.12552C21.8745 2.34528 21.5764 2.46875 21.2656 2.46875H1.73438C1.42358 2.46875 1.1255 2.34528 0.905734 2.12552C0.685969 1.90575 0.5625 1.60767 0.5625 1.29688ZM0.5625 9.10938C0.5625 8.79858 0.685969 8.5005 0.905734 8.28073C1.1255 8.06097 1.42358 7.9375 1.73438 7.9375H21.2656C21.5764 7.9375 21.8745 8.06097 22.0942 8.28073C22.3141 8.5005 22.4375 8.79858 22.4375 9.10938C22.4375 9.42017 22.3141 9.71825 22.0942 9.93801C21.8745 10.1578 21.5764 10.2812 21.2656 10.2812H1.73438C1.42358 10.2812 1.1255 10.1578 0.905734 9.93801C0.685969 9.71825 0.5625 9.42017 0.5625 9.10938ZM1.73438 15.75C1.42358 15.75 1.1255 15.8734 0.905734 16.0933C0.685969 16.313 0.5625 16.6111 0.5625 16.9219C0.5625 17.2327 0.685969 17.5308 0.905734 17.7505C1.1255 17.9703 1.42358 18.0938 1.73438 18.0938H21.2656C21.5764 18.0938 21.8745 17.9703 22.0942 17.7505C22.3141 17.5308 22.4375 17.2327 22.4375 16.9219C22.4375 16.6111 22.3141 16.313 22.0942 16.0933C21.8745 15.8734 21.5764 15.75 21.2656 15.75H1.73438Z" fill="white"/>
</svg>
