<svg width="16" height="17" viewBox="0 0 16 17" fill="none" xmlns="http://www.w3.org/2000/svg">
<path fill-rule="evenodd" clip-rule="evenodd" d="M11.125 5.25001C11.125 6.07881 10.7958 6.87366 10.2097 7.45971C9.62368 8.04577 8.82882 8.37501 8.00002 8.37501C7.17122 8.37501 6.37637 8.04577 5.79032 7.45971C5.20426 6.87366 4.87502 6.07881 4.87502 5.25001C4.87502 4.42121 5.20426 3.62635 5.79032 3.0403C6.37637 2.45425 7.17122 2.12501 8.00002 2.12501C8.82882 2.12501 9.62368 2.45425 10.2097 3.0403C10.7958 3.62635 11.125 4.42121 11.125 5.25001ZM11.2013 9.09126C11.9904 8.43331 12.5576 7.54823 12.826 6.55643C13.0943 5.56462 13.0504 4.51426 12.7005 3.54823C12.3506 2.58221 11.7116 1.74742 10.8705 1.15743C10.0293 0.567459 9.02683 0.250946 7.99939 0.250946C6.97195 0.250946 5.96946 0.567459 5.12829 1.15743C4.28713 1.74742 3.64813 2.58221 3.29825 3.54823C2.94837 4.51426 2.90457 5.56462 3.17283 6.55643C3.44109 7.54823 4.00838 8.43331 4.79752 9.09126C3.56701 9.67301 2.51786 10.5784 1.76239 11.7106C1.00693 12.8429 0.573593 14.1591 0.508768 15.5188C0.502743 15.7638 0.592868 16.0014 0.759868 16.1806C0.926855 16.36 1.15743 16.4669 1.40223 16.4783C1.64702 16.4898 1.88656 16.4049 2.06954 16.2419C2.25253 16.0789 2.36443 15.8508 2.38127 15.6063C2.44942 14.1619 3.07114 12.7993 4.1174 11.8013C5.16366 10.8032 6.55407 10.2463 8.00002 10.2463C9.44597 10.2463 10.8364 10.8032 11.8826 11.8013C12.9289 12.7993 13.5506 14.1619 13.6188 15.6063C13.6219 15.7311 13.6498 15.854 13.701 15.9679C13.7523 16.0818 13.8258 16.1843 13.9171 16.2693C14.0085 16.3544 14.116 16.4204 14.2331 16.4634C14.3504 16.5064 14.475 16.5255 14.5998 16.5196C14.7245 16.5139 14.8468 16.4831 14.9595 16.4294C15.0721 16.3756 15.173 16.3 15.256 16.2068C15.3391 16.1135 15.4026 16.0046 15.443 15.8865C15.4835 15.7684 15.4999 15.6433 15.4913 15.5188C15.4263 14.159 14.9928 12.8426 14.2371 11.7104C13.4814 10.5782 12.432 9.67283 11.2013 9.09126Z" fill="white"/>
</svg>
